<svg width="43" height="43" viewBox="0 0 43 43" fill="none" xmlns="http://www.w3.org/2000/svg">
<path d="M0 4C0 1.79086 1.79086 0 4 0H31C37.6274 0 43 5.37258 43 12V39C43 41.2091 41.2091 43 39 43H12C5.37258 43 0 37.6274 0 31V4Z" fill="white" fill-opacity="0.1"/>
<path d="M16.6667 17.875L20.2917 21.5L16.6667 25.125M22.7083 25.125H26.3333M13.0417 31.1666H29.9583C31.293 31.1666 32.375 30.0847 32.375 28.75V14.25C32.375 12.9153 31.293 11.8333 29.9583 11.8333H13.0417C11.707 11.8333 10.625 12.9153 10.625 14.25V28.75C10.625 30.0847 11.707 31.1666 13.0417 31.1666Z" stroke="white" stroke-opacity="0.6" stroke-width="2" stroke-linecap="round" stroke-linejoin="round"/>
</svg>
