<svg width="100" height="45" viewBox="0 0 100 45" fill="none" xmlns="http://www.w3.org/2000/svg">
<path d="M11.7305 22.0586L11.6484 16.8906C11.6484 16.0703 11.6667 15.3503 11.7031 14.7305C11.7578 14.0924 11.8945 13.7734 12.1133 13.7734H13.9453C13.9453 14.0651 13.9727 14.6302 14.0273 15.4688C14.082 16.3073 14.1185 17.1549 14.1367 18.0117C14.1549 18.8503 14.1641 19.5703 14.1641 20.1719C14.1641 20.7734 14.1549 21.5573 14.1367 22.5234C14.1185 23.4714 14.0273 24.5195 13.8633 25.668C13.4805 28.3112 12.7513 29.9427 11.6758 30.5625C10.8555 31.0182 9.55208 31.1276 7.76562 30.8906C5.96094 30.6354 4.375 30.1068 3.00781 29.3047C1.40365 28.375 0.483073 27.2812 0.246094 26.0234C0.246094 25.6042 0.382812 25.2396 0.65625 24.9297C1.14844 24.3464 1.59505 24.0547 1.99609 24.0547C2.01432 25.0938 2.29688 25.9505 2.84375 26.625C4.11979 28.1562 6.17057 28.9219 8.99609 28.9219C9.47005 28.9219 9.9349 28.8945 10.3906 28.8398C11.2839 28.3659 11.7305 26.1055 11.7305 22.0586ZM15.4219 27.3633C15.4219 27.0716 15.3945 26.6706 15.3398 26.1602C15.3034 25.6315 15.2669 25.0573 15.2305 24.4375C15.194 23.8177 15.1758 23.1888 15.1758 22.5508C15.1758 21.9128 15.2305 21.3294 15.3398 20.8008C15.5768 19.6159 16.069 19.0234 16.8164 19.0234C17.3268 19.1693 17.6641 19.3516 17.8281 19.5703C18.0104 19.7891 18.1016 20.0625 18.1016 20.3906C18.1016 20.7005 18.0195 21.0924 17.8555 21.5664C17.2539 23.1523 16.9531 24.5833 16.9531 25.8594C16.9531 26.2786 16.9805 26.7253 17.0352 27.1992C17.3268 28.4206 18.3294 29.0312 20.043 29.0312C20.9362 29.0312 21.7839 28.8763 22.5859 28.5664C24.1172 28.0013 25.1562 27.3359 25.7031 26.5703C25.8672 25.7318 25.9492 25.0026 25.9492 24.3828C25.9492 23.7448 25.9219 23.1797 25.8672 22.6875C25.8307 22.1953 25.776 21.6576 25.7031 21.0742C25.6484 20.4727 25.612 19.8164 25.5938 19.1055C25.8307 18.9961 26.0586 18.9414 26.2773 18.9414C26.5143 18.9414 26.7513 19.0599 26.9883 19.2969C27.2435 19.5339 27.4531 19.9805 27.6172 20.6367C27.7995 21.293 27.918 22.0677 27.9727 22.9609C28.0273 23.8359 28.0547 24.7474 28.0547 25.6953C28.0729 26.6432 28.082 27.5638 28.082 28.457C28.082 29.332 28.1185 30.0885 28.1914 30.7266C27.9727 30.9271 27.763 31.0273 27.5625 31.0273C26.8333 31.0273 26.2956 30.2982 25.9492 28.8398C25.7122 29.0404 25.3112 29.2865 24.7461 29.5781C23.543 30.2344 22.1211 30.6719 20.4805 30.8906C20.1706 30.9271 19.8242 30.9453 19.4414 30.9453C19.0586 30.9453 18.5755 30.8724 17.9922 30.7266C17.4271 30.5807 16.8893 30.2435 16.3789 29.7148C15.8685 29.1862 15.5495 28.4023 15.4219 27.3633ZM42.7109 9.04297C42.7109 10.793 42.6562 12.5065 42.5469 14.1836C42.4557 15.8424 42.3646 17.474 42.2734 19.0781C42.2005 20.6641 42.1641 22.3594 42.1641 24.1641C42.1641 25.9505 42.2917 27.8464 42.5469 29.8516C42.5469 30.2708 42.4648 30.5716 42.3008 30.7539C42.1549 30.9362 41.8997 31.0273 41.5352 31.0273C40.6784 31.0273 40.25 30.3164 40.25 28.8945V27.9922C37.6615 29.9245 35.474 30.8906 33.6875 30.8906C32.9766 30.8906 32.2474 30.7174 31.5 30.3711C30.7708 30.0247 30.0781 29.3229 29.4219 28.2656C29.3307 27.8281 29.2852 27.3815 29.2852 26.9258C29.2852 26.4701 29.3672 25.9232 29.5312 25.2852C29.7135 24.6289 30.069 23.9544 30.5977 23.2617C31.1445 22.569 31.8008 21.9583 32.5664 21.4297C34.2435 20.2995 36.0573 19.7344 38.0078 19.7344C38.8464 19.7344 39.6484 19.862 40.4141 20.1172C40.4141 19.7891 40.4323 19.2148 40.4688 18.3945C40.5234 17.5742 40.5781 16.7083 40.6328 15.7969C40.7422 13.4271 40.8151 12.0326 40.8516 11.6133C40.888 11.1758 40.9336 10.8112 40.9883 10.5195C41.0612 10.2096 41.1615 9.94531 41.2891 9.72656C41.5625 9.27083 42.0365 9.04297 42.7109 9.04297ZM31.2812 26.707C31.2812 28.1471 31.8008 28.8672 32.8398 28.8672C33.0039 28.8672 33.1862 28.849 33.3867 28.8125C34.1341 28.8125 35.0547 28.5938 36.1484 28.1562C38.2266 27.3359 39.4935 26.625 39.9492 26.0234V22.3867C39.9492 21.7487 39.4297 21.4297 38.3906 21.4297C38.263 21.4115 38.0898 21.4023 37.8711 21.4023C37.6706 21.4023 37.3516 21.4479 36.9141 21.5391C36.4766 21.6302 35.9844 21.7943 35.4375 22.0312C34.8906 22.2682 34.3529 22.5599 33.8242 22.9062C32.7122 23.6536 31.9466 24.5286 31.5273 25.5312C31.3633 25.9141 31.2812 26.306 31.2812 26.707ZM46.5938 18.1484C46.8307 21.5573 47.0312 25.5039 47.1953 29.9883C47.0859 30.5534 46.6484 30.8359 45.8828 30.8359C45.6823 30.8359 45.4727 30.7995 45.2539 30.7266C45.0534 30.6354 44.9258 30.5169 44.8711 30.3711V18.1484H46.5938ZM44.0508 14.4297C44.0508 13.7917 44.4245 13.4727 45.1719 13.4727C45.6641 13.4727 46.0651 13.582 46.375 13.8008C46.4297 14.0013 46.457 14.2018 46.457 14.4023C46.457 14.5846 46.3841 14.7669 46.2383 14.9492C46.0924 15.1315 45.8737 15.2227 45.582 15.2227C45.2904 15.2227 44.9987 15.1589 44.707 15.0312C44.4154 14.8854 44.1966 14.6849 44.0508 14.4297ZM59.418 28.1289C60.1654 27.819 60.8945 27.5365 61.6055 27.2812C62.3164 27.026 62.9909 26.8984 63.6289 26.8984C64.2852 26.8984 64.6133 27.099 64.6133 27.5C64.6133 27.5911 64.5859 27.737 64.5312 27.9375C64.4948 28.1198 64.2487 28.3477 63.793 28.6211C63.3555 28.8763 62.8086 29.1224 62.1523 29.3594C61.5143 29.5964 60.8125 29.8151 60.0469 30.0156C59.2812 30.2161 58.5339 30.3893 57.8047 30.5352C56.2917 30.8451 55.2161 31 54.5781 31C53.9401 31 53.2474 30.9271 52.5 30.7812C51.7708 30.6354 51.0872 30.3984 50.4492 30.0703C48.9727 29.3047 48.2344 28.1745 48.2344 26.6797C48.2344 26.5703 48.2344 26.3516 48.2344 26.0234C48.2344 25.6953 48.3711 25.2305 48.6445 24.6289C48.918 24.0091 49.3281 23.3984 49.875 22.7969C50.4219 22.1771 51.0599 21.612 51.7891 21.1016C53.3203 20.0078 54.9245 19.2969 56.6016 18.9688C57.1849 18.8411 57.668 18.7773 58.0508 18.7773C58.4518 18.7773 58.7799 18.7865 59.0352 18.8047C59.2904 18.8047 59.5547 18.8229 59.8281 18.8594C60.1016 18.8776 60.3385 18.9414 60.5391 19.0508C61.013 19.2878 61.25 19.7526 61.25 20.4453C61.25 20.8828 60.9401 21.3112 60.3203 21.7305C60.1562 21.8398 60.0104 21.9401 59.8828 22.0312C59.7917 21.612 59.6732 21.2565 59.5273 20.9648C59.3815 20.6732 59.0625 20.5273 58.5703 20.5273C56.4193 20.9831 54.569 21.6667 53.0195 22.5781C51.2695 23.6172 50.3945 24.7109 50.3945 25.8594C50.3945 25.987 50.4036 26.1237 50.4219 26.2695C50.4219 27.4362 50.8685 28.2656 51.7617 28.7578C52.4362 29.1224 53.3021 29.3047 54.3594 29.3047C55.4349 29.3047 56.3646 29.1862 57.1484 28.9492C57.9323 28.694 58.6888 28.4206 59.418 28.1289ZM76.8359 26.4609C75.4688 28.612 73.6458 29.9427 71.3672 30.4531C70.8385 30.5625 70.3555 30.6172 69.918 30.6172C69.4987 30.6172 69.1432 30.6172 68.8516 30.6172C68.5781 30.599 68.2682 30.5534 67.9219 30.4805C67.5755 30.4076 67.2565 30.2891 66.9648 30.125C66.2904 29.7422 65.9531 29.2044 65.9531 28.5117C65.8802 28.1836 65.8438 27.819 65.8438 27.418C65.8438 26.9987 65.9349 26.4518 66.1172 25.7773C66.2995 25.1029 66.6276 24.3737 67.1016 23.5898C67.5938 22.806 68.1862 22.0859 68.8789 21.4297C70.319 20.0443 71.8776 19.151 73.5547 18.75C74.0469 18.6406 74.4935 18.5859 74.8945 18.5859C75.3138 18.5859 75.6875 18.6133 76.0156 18.668C77.0729 18.668 77.7839 19.388 78.1484 20.8281C78.3854 21.7396 78.5221 23.0156 78.5586 24.6562C78.6133 26.2786 78.6589 27.5365 78.6953 28.4297C78.75 29.3047 78.8685 30.1068 79.0508 30.8359H77.4375C77.3646 30.3438 77.3099 29.9062 77.2734 29.5234C77.237 29.1406 77.2005 28.7852 77.1641 28.457C77.0729 27.6914 76.9635 27.026 76.8359 26.4609ZM76.7266 22.2227C76.7266 21.1654 76.207 20.6367 75.168 20.6367C75.0404 20.6185 74.9128 20.6094 74.7852 20.6094C73.4544 20.6094 72.0508 21.2474 70.5742 22.5234C69.8815 23.1068 69.2891 23.763 68.7969 24.4922C68.0677 25.5312 67.7031 26.4609 67.7031 27.2812C67.7031 28.3568 68.3229 28.9948 69.5625 29.1953C71.2031 29.1589 72.7708 28.4115 74.2656 26.9531C74.9036 26.3151 75.4323 25.6224 75.8516 24.875C76.4349 23.8724 76.7266 22.9883 76.7266 22.2227ZM85.9141 29.0859C87.5182 29.0859 89.9336 28.3568 93.1602 26.8984C93.3607 26.8984 93.5247 26.9714 93.6523 27.1172C93.7799 27.2448 93.8438 27.3997 93.8438 27.582C93.1146 28.8216 91.7201 29.7878 89.6602 30.4805C87.6003 31.1732 85.6771 31.2917 83.8906 30.8359C81.8672 30.3073 80.6367 29.168 80.1992 27.418C80.1628 27.0716 80.1445 26.6068 80.1445 26.0234C80.1445 25.4401 80.2904 24.6745 80.582 23.7266C80.8919 22.7604 81.4115 21.849 82.1406 20.9922C82.8698 20.1354 83.7266 19.4609 84.7109 18.9688C85.6953 18.4766 86.7435 18.2305 87.8555 18.2305C88.9128 18.2305 90.0977 18.5951 91.4102 19.3242C92.0299 19.6706 92.5221 20.0625 92.8867 20.5C93.2513 20.9375 93.4336 21.3841 93.4336 21.8398C93.4336 21.9674 93.4245 22.0951 93.4062 22.2227C93.3698 23.3346 92.832 24.0365 91.793 24.3281C91.3372 24.4557 90.8086 24.5195 90.207 24.5195L86.2695 24.3555C84.957 24.3555 83.9544 24.638 83.2617 25.2031C82.8607 25.513 82.5781 25.9779 82.4141 26.5977C82.8698 28.2565 84.0365 29.0859 85.9141 29.0859ZM90.7812 20.6367C90.3802 20.3451 89.9609 20.1354 89.5234 20.0078C89.0859 19.8802 88.7214 19.8164 88.4297 19.8164C88.138 19.8164 87.6641 19.9167 87.0078 20.1172C86.3516 20.2995 85.7682 20.5091 85.2578 20.7461C84 21.3294 83.3711 21.9401 83.3711 22.5781C84.8294 22.7057 85.9232 22.7695 86.6523 22.7695C88.6758 22.7695 90.043 22.5964 90.7539 22.25C91.1914 22.0677 91.4102 21.8398 91.4102 21.5664C91.4102 21.2383 91.2005 20.9284 90.7812 20.6367ZM84.6562 14.6758C84.2188 14.6758 84 14.3659 84 13.7461C84 13.5273 84.4557 13.2266 85.3672 12.8438C85.75 12.8438 86.0052 12.9258 86.1328 13.0898C86.2786 13.2539 86.3516 13.4635 86.3516 13.7188C86.3516 13.974 86.2969 14.1654 86.1875 14.293C86.0781 14.4023 85.9414 14.4844 85.7773 14.5391C85.5586 14.6302 85.1849 14.6758 84.6562 14.6758ZM88.5938 14.6758C88.1562 14.6758 87.9375 14.3659 87.9375 13.7461C87.9375 13.5091 88.4023 13.2083 89.332 12.8438C89.9883 12.8438 90.3164 13.1536 90.3164 13.7734C90.3164 14.3385 89.9336 14.6302 89.168 14.6484C88.9674 14.6667 88.776 14.6758 88.5938 14.6758ZM95.9766 20.3906C95.9401 19.4062 95.9036 18.5312 95.8672 17.7656C95.8307 16.9818 95.8034 16.4076 95.7852 16.043C95.7852 15.6602 95.6393 14.7396 95.3477 13.2812C95.5117 13.0625 95.6667 12.8529 95.8125 12.6523C95.9766 12.4518 96.2044 12.3516 96.4961 12.3516C97.1341 12.3516 97.6263 15.0404 97.9727 20.418C98.1549 23.5352 98.2461 26.6523 98.2461 29.7695C98.2461 30.6081 97.6628 31.0273 96.4961 31.0273L96.2773 31C96.2773 30.0521 96.25 28.8398 96.1953 27.3633C96.1406 25.8867 96.0951 24.6016 96.0586 23.5078C96.0404 22.4141 96.013 21.375 95.9766 20.3906Z" fill="white"/>
</svg>
